<?xml version="1.0" encoding="UTF-8" standalone="no"?>
<svg
   xmlns:dc="http://purl.org/dc/elements/1.1/"
   xmlns:cc="http://creativecommons.org/ns#"
   xmlns:rdf="http://www.w3.org/1999/02/22-rdf-syntax-ns#"
   xmlns:svg="http://www.w3.org/2000/svg"
   xmlns="http://www.w3.org/2000/svg"
   xmlns:sodipodi="http://sodipodi.sourceforge.net/DTD/sodipodi-0.dtd"
   xmlns:inkscape="http://www.inkscape.org/namespaces/inkscape"
   enable-background="new 0 0 55 55"
   height="55px"
   id="Layer_1"
   version="1.1"
   viewBox="0 0 55 55"
   width="55px"
   x="0px"
   xml:space="preserve"
   y="0px"
   inkscape:version="0.48.3.1 r9886"
   sodipodi:docname="journal-share-icon.svg"><metadata
     id="metadata3072"><rdf:RDF><cc:Work
         rdf:about=""><dc:format>image/svg+xml</dc:format><dc:type
           rdf:resource="http://purl.org/dc/dcmitype/StillImage" /><dc:title></dc:title></cc:Work></rdf:RDF></metadata><defs
     id="defs3070" /><sodipodi:namedview
     pagecolor="#ffffff"
     bordercolor="#666666"
     borderopacity="1"
     objecttolerance="10"
     gridtolerance="10"
     guidetolerance="10"
     inkscape:pageopacity="0"
     inkscape:pageshadow="2"
     inkscape:window-width="1024"
     inkscape:window-height="541"
     id="namedview3068"
     showgrid="false"
     inkscape:zoom="6.2181818"
     inkscape:cx="4.2970532"
     inkscape:cy="27.5"
     inkscape:window-x="0"
     inkscape:window-y="27"
     inkscape:window-maximized="1"
     inkscape:current-layer="Layer_1" /><g
     display="block"
     id="activity-journal"
     style="stroke:#78e600;stroke-opacity:1;fill:#033cd2;fill-opacity:1"><path
       d="M45.866,44.669   c0,2.511-1.528,4.331-4.332,4.331H12.077V6h29.458c2.15,0,4.332,2.154,4.332,4.33L45.866,44.669L45.866,44.669z"
       fill="#ffffff"
       stroke="#666666"
       stroke-linecap="round"
       stroke-linejoin="round"
       stroke-width="3.5"
       id="path3058"
       style="stroke:#78e600;stroke-opacity:1;fill:#033cd2;fill-opacity:1" /><line
       fill="none"
       stroke="#666666"
       stroke-linecap="round"
       stroke-linejoin="round"
       stroke-width="3.5"
       x1="21.341"
       x2="21.341"
       y1="6.121"
       y2="48.881"
       id="line3060"
       style="stroke:#78e600;stroke-opacity:1;fill:#033cd2;fill-opacity:1" /><path
       d="M7.384,14.464   c0,0,2.084,0.695,4.17,0.695c2.086,0,4.173-0.695,4.173-0.695"
       fill="none"
       stroke="#666666"
       stroke-linecap="round"
       stroke-linejoin="round"
       stroke-width="3.5"
       id="path3062"
       style="stroke:#78e600;stroke-opacity:1;fill:#033cd2;fill-opacity:1" /><path
       d="M7.384,28.021   c0,0,1.912,0.695,4.345,0.695s3.999-0.695,3.999-0.695"
       fill="none"
       stroke="#666666"
       stroke-linecap="round"
       stroke-linejoin="round"
       stroke-width="3.5"
       id="path3064"
       style="stroke:#78e600;stroke-opacity:1;fill:#033cd2;fill-opacity:1" /><path
       d="M7.384,41.232   c0,0,1.736,0.695,4.518,0.695c2.781,0,3.825-0.695,3.825-0.695"
       fill="none"
       stroke="#666666"
       stroke-linecap="round"
       stroke-linejoin="round"
       stroke-width="3.5"
       id="path3066"
       style="stroke:#78e600;stroke-opacity:1;fill:#033cd2;fill-opacity:1" /></g><g
     transform="matrix(0.56922896,0,0,0.54105698,47.285258,23.809361)"
     style="display:block;stroke:#78e600;stroke-opacity:1;fill:#033cd2;fill-opacity:1"
     display="block"
     id="activity-browse"><circle
       d="m 47.278,27.5 c 0,10.992123 -8.910877,19.903 -19.903,19.903 -10.992123,0 -19.9029999,-8.910877 -19.9029999,-19.903 0,-10.992123 8.9108769,-19.9029999 19.9029999,-19.9029999 10.992123,0 19.903,8.9108769 19.903,19.9029999 z"
       style="fill:#033cd2;stroke:#78e600;stroke-width:3.50000000000000000;display:inline;stroke-opacity:1;fill-opacity:1"
       sodipodi:ry="19.903"
       sodipodi:rx="19.903"
       sodipodi:cy="27.5"
       sodipodi:cx="27.375"
       cx="27.375"
       cy="27.5"
       display="inline"
       r="19.903"
       id="circle3158"
       transform="translate(-38.596491,6.4327485)" /><g
       style="display:inline;stroke:#78e600;stroke-opacity:1;fill:#033cd2;fill-opacity:1"
       display="inline"
       id="g3160"
       transform="translate(-38.596491,6.4327485)"><path
         style="fill:#033cd2;stroke:#78e600;stroke-width:3.50000000000000000;stroke-opacity:1;fill-opacity:1"
         inkscape:connector-curvature="0"
         d="m 27.376,7.598 c 0,0 -11.205,8.394 -11.205,19.976 0,11.583 11.205,19.829 11.205,19.829"
         id="path3162" /><path
         style="fill:#033cd2;stroke:#78e600;stroke-width:3.50000000000000000;stroke-opacity:1;fill-opacity:1"
         inkscape:connector-curvature="0"
         d="m 27.376,7.598 c 0,0 11.066,9.141 11.066,19.976 0,10.839 -11.066,19.829 -11.066,19.829"
         id="path3164" /><line
         style="fill:#033cd2;stroke:#78e600;stroke-width:3.50000000000000000;stroke-opacity:1;fill-opacity:1"
         x1="27.375999"
         x2="27.375999"
         y1="7.598"
         y2="47.402"
         id="line3166" /><line
         style="fill:#033cd2;stroke:#78e600;stroke-width:3.50000000000000000;stroke-opacity:1;fill-opacity:1"
         x1="27.375999"
         x2="27.375999"
         y1="7.598"
         y2="47.402"
         id="line3168" /><line
         style="fill:#033cd2;stroke:#78e600;stroke-width:3.50000000000000000;stroke-opacity:1;fill-opacity:1"
         x1="27.375999"
         x2="27.375999"
         y1="7.598"
         y2="47.402"
         id="line3170" /><line
         style="fill:#033cd2;stroke:#78e600;stroke-width:3.50000000000000000;stroke-opacity:1;fill-opacity:1"
         x1="7.4720001"
         x2="47.278"
         y1="27.5"
         y2="27.5"
         id="line3172" /></g></g></svg>